<svg width="58" height="57" viewBox="0 0 58 57" fill="none" xmlns="http://www.w3.org/2000/svg">
<path d="M28.5137 2.5C42.8816 2.50009 54.5273 14.1418 54.5273 28.5C54.5273 42.8582 42.8816 54.4999 28.5137 54.5C14.1457 54.5 2.5 42.8583 2.5 28.5C2.5 14.1417 14.1457 2.5 28.5137 2.5Z" fill="#B22300" stroke="#2A0800" stroke-width="5"/>
<path d="M25.3294 19.4637C25.9434 18.8454 26.9388 18.8454 27.5528 19.4637C28.1668 20.0821 28.1668 21.0846 27.5528 21.7029L22.3758 26.9167H37.4463C38.3146 26.9167 39.0185 27.6256 39.0185 28.5C39.0185 29.3745 38.3146 30.0833 37.4463 30.0833H22.3758L27.5528 35.2971C28.1668 35.9154 28.1668 36.9179 27.5528 37.5363C26.9388 38.1546 25.9434 38.1546 25.3294 37.5363L17.4685 29.6196C16.8546 29.0013 16.8546 27.9988 17.4685 27.3804L25.3294 19.4637Z" fill="#FFFD8D"/>
</svg>
