<svg width="24" height="21" viewBox="0 0 24 21" fill="none" xmlns="http://www.w3.org/2000/svg">
<path d="M5.04001 2.12827e-06C4.38775 2.12827e-06 3.82635 -0.000920456 3.36593 0.0356515C2.89153 0.0733352 2.41965 0.156542 1.96559 0.381482L1.93395 0.397341C1.27119 0.733728 0.732124 1.26263 0.392382 1.91099L0.371147 1.95245C0.155741 2.38113 0.0742226 2.82564 0.0366707 3.27247C-0.000947952 3.72008 1.90735e-06 4.26587 1.90735e-06 4.9V16.1C1.90735e-06 16.7341 -0.000947952 17.2799 0.0366707 17.7275C0.0754299 18.1887 0.161047 18.6475 0.392382 19.0889L0.392347 19.0889C0.737429 19.7475 1.28823 20.2829 1.96559 20.6185L1.96556 20.6185C2.41962 20.8434 2.89152 20.9266 3.36593 20.9643C3.82635 21.0009 4.38775 21 5.04001 21H18.96C19.6123 21 20.1737 21.0009 20.6341 20.9643C21.1085 20.9266 21.5804 20.8434 22.0344 20.6185V20.6185C22.7119 20.2829 23.2625 19.7474 23.6076 19.089C23.839 18.6475 23.9246 18.1888 23.9633 17.7275C24.0009 17.2799 24 16.7341 24 16.1V4.9C24 4.26586 24.0009 3.72008 23.9633 3.27247C23.9246 2.81124 23.839 2.35249 23.6076 1.91106H23.6077C23.2625 1.25247 22.7117 0.716999 22.0343 0.381447V0.381482C21.5803 0.156561 21.1084 0.0733355 20.634 0.0356515C20.1736 -0.000919893 19.6122 2.12827e-06 18.96 2.12827e-06H5.04001ZM16.8 2.33331V18.6667H7.20001V2.33331H16.8ZM21.5999 16.3333C21.5994 16.8759 21.5957 17.2468 21.5713 17.5375C21.5447 17.8545 21.4995 17.972 21.4692 18.0296H21.4692C21.3577 18.2423 21.182 18.4165 20.9659 18.5287L20.9449 18.5394L20.9448 18.5395C20.8855 18.5689 20.7646 18.6128 20.4386 18.6387C20.1396 18.6625 19.7581 18.666 19.2 18.6666V16.3333H21.5999ZM4.79999 18.6666C4.24187 18.666 3.86035 18.6625 3.56137 18.6387C3.23536 18.6128 3.11452 18.5689 3.05522 18.5395L3.05512 18.5394C2.82942 18.4276 2.64581 18.2492 2.53083 18.0297L2.53076 18.0296C2.50055 17.972 2.45534 17.8545 2.4287 17.5375C2.40428 17.2468 2.40062 16.8759 2.40009 16.3333H4.79999V18.6666ZM4.79999 14H2.39998V11.6667H4.79999V14ZM21.6 14H19.2V11.6667H21.6V14ZM4.79999 9.33331H2.39998V7H4.79999V9.33331ZM21.6 9.33331H19.2V7H21.6V9.33331ZM4.79999 4.66666H2.40009C2.40062 4.12404 2.40428 3.75314 2.4287 3.46247C2.45534 3.14553 2.50057 3.02803 2.5308 2.97035L2.53087 2.97022C2.64582 2.75083 2.82937 2.57236 3.05519 2.46049L3.05522 2.46046C3.11453 2.43109 3.23538 2.38713 3.56137 2.36124C3.86036 2.33749 4.24187 2.3339 4.79999 2.33338V4.66666ZM19.2 2.33338C19.7581 2.3339 20.1396 2.33749 20.4386 2.36124C20.7646 2.38713 20.8855 2.43111 20.9448 2.46049H20.9448C21.1706 2.57234 21.3542 2.75081 21.4692 2.97032V2.97035C21.4994 3.02803 21.5447 3.14554 21.5713 3.46247C21.5957 3.75314 21.5994 4.12404 21.5999 4.66666H19.2V2.33338Z" fill="white"/>
</svg>
