<svg width="52" height="73" viewBox="0 0 52 73" fill="none" xmlns="http://www.w3.org/2000/svg">
<path d="M25.5625 2C38.5762 2.00021 49.1239 12.5446 49.124 25.5498C49.124 28.6041 47.7012 32.9896 45.3193 38.0684C42.9729 43.0716 39.8264 48.4828 36.6533 53.4971C33.4846 58.5044 30.3124 63.0797 27.9307 66.4053C27.0063 67.6959 26.1992 68.7957 25.5615 69.6592C24.9239 68.7958 24.1185 67.6956 23.1943 66.4053C20.8125 63.0797 17.6395 58.5046 14.4707 53.4971C11.2976 48.4828 8.15113 43.0716 5.80469 38.0684C3.42285 32.9896 2 28.6041 2 25.5498C2.00011 12.5445 12.5487 2 25.5625 2ZM25.5625 17.0498C20.4237 17.0498 16.2588 21.2119 16.2588 26.3506C16.259 31.4891 20.4238 35.6504 25.5625 35.6504C30.701 35.6502 34.865 31.489 34.8652 26.3506C34.8652 21.212 30.7012 17.05 25.5625 17.0498Z" fill="#FE481B" stroke="black" stroke-width="4"/>
</svg>
