<svg width="22" height="22" viewBox="0 0 22 22" fill="none" xmlns="http://www.w3.org/2000/svg">
<path d="M18.2222 6.26331L17.4989 17.6812C17.4113 18.8502 17.3674 19.4347 17.0834 19.8779C16.8333 20.2682 16.456 20.5818 16.0014 20.7777C15.485 21.0002 14.8259 21.0002 13.5078 21.0002H8.49221C7.17409 21.0002 6.51503 21.0002 5.99861 20.7777C5.54396 20.5818 5.16674 20.2682 4.91665 19.8779C4.63259 19.4347 4.58875 18.8502 4.50108 17.6812L3.77778 6.26331M1 6.26331H21H1ZM16 4.33349L15.6618 3.43134C15.3339 2.5571 15.1699 2.11997 14.8659 1.7968C14.5974 1.51141 14.2526 1.29051 13.8631 1.15435C13.422 1.00015 12.9038 1.00015 11.867 1.00015H10.133C9.09625 1.00015 8.578 1.00015 8.13689 1.15435C7.7474 1.29051 7.4026 1.51141 7.13411 1.7968C6.83006 2.11997 6.66615 2.5571 6.3383 3.43134L6 4.33349" fill="#2A0800"/>
<path d="M18.2222 6.26331L17.4989 17.6812C17.4113 18.8502 17.3674 19.4347 17.0834 19.8779C16.8332 20.2682 16.456 20.5818 16.0014 20.7777C15.485 21.0002 14.8259 21.0002 13.5078 21.0002H8.49221C7.17409 21.0002 6.51503 21.0002 5.99861 20.7777C5.54396 20.5818 5.16674 20.2682 4.91665 19.8779C4.63259 19.4347 4.58875 18.8502 4.50108 17.6812L3.77778 6.26331M1 6.26331H21M16 4.33349L15.6618 3.43134C15.3339 2.5571 15.1699 2.11997 14.8659 1.7968C14.5974 1.51141 14.2526 1.29051 13.8631 1.15435C13.422 1.00015 12.9038 1.00015 11.867 1.00015H10.133C9.09625 1.00015 8.578 1.00015 8.13689 1.15435C7.7474 1.29051 7.4026 1.51141 7.13411 1.7968C6.83006 2.11997 6.66615 2.5571 6.3383 3.43134L6 4.33349" stroke="white" stroke-width="2" stroke-linecap="round" stroke-linejoin="round"/>
</svg>
