<svg width="76" height="67" viewBox="0 0 76 67" fill="none" xmlns="http://www.w3.org/2000/svg">
<path d="M71.8167 40.2031L13.9511 62.2397L11.2607 55.0435C11.2607 55.0435 16.9483 52.2363 15.0803 47.3466C13.2123 42.4569 6.45134 43.5244 6.45134 43.5244L3.81665 36.1174L61.8773 14.4631L64.749 20.8816C64.749 20.8816 58.5596 24.4533 60.4833 29.5143C62.4071 34.5754 69.1959 33.3892 69.1959 33.3892L71.8167 40.2031Z" stroke="black" stroke-width="6"/>
<path d="M16.4678 30.8863L19.6306 38.3514" stroke="black" stroke-width="6" stroke-dasharray="112.5 50"/>
<path d="M21.2119 41.3374L24.3747 47.3095" stroke="black" stroke-width="6" stroke-dasharray="112.5 50"/>
<path d="M25.1655 49.549L28.3283 56.2676" stroke="black" stroke-width="6" stroke-dasharray="112.5 50"/>
<path d="M3.81665 35.3653L48.1723 4.01193L52.8399 9.35372C52.8399 9.35372 48.0481 14.4718 51.459 18.7611" stroke="black" stroke-width="6"/>
</svg>
